ply
format ascii 1.0
comment Created by Blender 3.4.1 - www.blender.org
element vertex 25
property float x
property float y
property float z
property float nx
property float ny
property float nz
property float s
property float t
property uchar red
property uchar green
property uchar blue
property uchar alpha
element face 32
property list uchar uint vertex_indices
end_header
1.000000 0.500000 0.000000 0.000000 0.000000 1.000000 1.000000 0.750000 255 255 255 255
0.500000 1.000000 0.000000 0.000000 0.000000 1.000000 0.750000 1.000000 255 255 255 255
0.669758 0.341020 0.000000 0.000000 0.000000 1.000000 0.750000 0.750000 255 255 255 255
-0.053891 0.448803 0.000000 0.000000 0.000000 1.000000 0.500000 0.750000 255 255 255 255
-0.500000 1.000000 0.000000 0.000000 0.000000 1.000000 0.250000 1.000000 255 255 255 255
-0.656285 0.621256 0.000000 0.000000 0.000000 1.000000 0.250000 0.750000 199 255 24 255
-0.486527 -0.672453 0.000000 0.000000 0.000000 1.000000 0.250000 0.250000 199 255 24 255
0.051197 -0.110477 0.000000 0.000000 0.000000 1.000000 0.500000 0.500000 255 255 255 255
-0.667063 -0.083532 0.000000 0.000000 0.000000 1.000000 0.250000 0.500000 255 255 255 255
1.000000 -0.500000 0.000000 0.000000 0.000000 1.000000 1.000000 0.250000 255 255 255 255
0.580837 -0.145507 0.000000 0.000000 0.000000 1.000000 0.750000 0.500000 199 255 24 255
0.335631 -0.462276 0.000000 0.000000 0.000000 1.000000 0.750000 0.250000 255 255 255 255
0.078143 -0.443414 0.000000 0.000000 0.000000 1.000000 0.500000 0.250000 255 255 255 255
0.000000 -1.000000 0.000000 0.000000 0.000000 1.000000 0.500000 0.000000 255 255 255 255
0.500000 -1.000000 0.000000 0.000000 0.000000 1.000000 0.750000 0.000000 255 255 255 255
-1.000000 -0.500000 0.000000 0.000000 0.000000 1.000000 0.000000 0.250000 255 255 255 255
-1.000000 0.000000 0.000000 0.000000 0.000000 1.000000 0.000000 0.500000 255 255 255 255
-1.000000 -1.000000 0.000000 0.000000 0.000000 1.000000 0.000000 0.000000 255 255 255 255
-0.500000 -1.000000 0.000000 0.000000 0.000000 1.000000 0.250000 0.000000 255 255 255 255
-1.000000 1.000000 0.000000 0.000000 0.000000 1.000000 0.000000 1.000000 255 255 255 255
-1.000000 0.500000 0.000000 0.000000 0.000000 1.000000 0.000000 0.750000 255 255 255 255
0.000000 1.000000 0.000000 0.000000 0.000000 1.000000 0.500000 1.000000 255 255 255 255
1.000000 0.000000 0.000000 0.000000 0.000000 1.000000 1.000000 0.500000 255 255 255 255
1.000000 1.000000 0.000000 0.000000 0.000000 1.000000 1.000000 1.000000 255 255 255 255
1.000000 -1.000000 0.000000 0.000000 0.000000 1.000000 1.000000 0.000000 255 255 255 255
3 0 1 2
3 3 4 5
3 6 7 8
3 9 10 11
3 11 7 12
3 13 11 12
3 14 9 11
3 15 8 16
3 17 6 15
3 13 6 18
3 5 19 20
3 8 20 16
3 8 3 5
3 3 1 21
3 7 2 3
3 22 2 10
3 0 23 1
3 3 21 4
3 6 12 7
3 9 22 10
3 11 10 7
3 13 14 11
3 14 24 9
3 15 6 8
3 17 18 6
3 13 12 6
3 5 4 19
3 8 5 20
3 8 7 3
3 3 2 1
3 7 10 2
3 22 0 2
